<?xml version="1.0" encoding="UTF-8" standalone="no"?>
<!DOCTYPE svg PUBLIC "-//W3C//DTD SVG 1.0//EN" "http://www.w3.org/TR/2001/PR-SVG-20010719/DTD/svg10.dtd">
<svg width="34cm" height="17cm" viewBox="102 41 674 329" xmlns="http://www.w3.org/2000/svg" xmlns:xlink="http://www.w3.org/1999/xlink">
  <g>
    <rect style="fill: #90ee90" x="104" y="43" width="671" height="116"/>
    <rect style="fill: none; fill-opacity:0; stroke-width: 2; stroke: #000000" x="104" y="43" width="671" height="116"/>
    <text style="fill: #000000;text-anchor:start;font-size:12.8;font-family:sanserif;font-style:normal;font-weight:normal" x="113" y="104.9">
      <tspan x="113" y="104.9">Data layer</tspan>
    </text>
  </g>
  <g>
    <rect style="fill: #ffc0cb" x="104" y="157" width="671" height="112"/>
    <rect style="fill: none; fill-opacity:0; stroke-width: 2; stroke: #000000" x="104" y="157" width="671" height="112"/>
    <text style="fill: #000000;text-anchor:start;font-size:12.8;font-family:sanserif;font-style:normal;font-weight:normal" x="113" y="216.9">
      <tspan x="113" y="216.9">Service layer</tspan>
    </text>
  </g>
  <g>
    <rect style="fill: #add8e6" x="103.725" y="269" width="671.275" height="100"/>
    <rect style="fill: none; fill-opacity:0; stroke-width: 2; stroke: #000000" x="103.725" y="269" width="671.275" height="100"/>
    <text style="fill: #000000;text-anchor:start;font-size:12.8;font-family:sanserif;font-style:normal;font-weight:normal" x="112.725" y="322.9">
      <tspan x="112.725" y="322.9">Presentation layer</tspan>
    </text>
  </g>
  <g>
    <rect style="fill: #ffffff" x="249" y="88" width="34" height="30"/>
    <ellipse style="fill: #ffffff" cx="266" cy="118" rx="17" ry="5"/>
    <ellipse style="fill: #ffffff" cx="266" cy="88" rx="17" ry="5"/>
    <ellipse style="fill: none; fill-opacity:0; stroke-width: 2; stroke: #000000" cx="266" cy="88" rx="17" ry="5"/>
    <path style="fill: none; fill-opacity:0; stroke-width: 2; stroke: #000000" d="M 283 88 L 283,118 C 283,120.761 275.389,123 266,123 C 256.611,123 249,120.761 249,118 L 249,88"/>
    <text style="fill: #000000;text-anchor:middle;font-size:12.8;font-family:sanserif;font-style:normal;font-weight:normal" x="266" y="135">
      <tspan x="266" y="135">rooms</tspan>
    </text>
  </g>
  <g>
    <rect style="fill: #ffffff" x="372" y="89" width="34" height="30"/>
    <ellipse style="fill: #ffffff" cx="389" cy="119" rx="17" ry="5"/>
    <ellipse style="fill: #ffffff" cx="389" cy="89" rx="17" ry="5"/>
    <ellipse style="fill: none; fill-opacity:0; stroke-width: 2; stroke: #000000" cx="389" cy="89" rx="17" ry="5"/>
    <path style="fill: none; fill-opacity:0; stroke-width: 2; stroke: #000000" d="M 406 89 L 406,119 C 406,121.761 398.389,124 389,124 C 379.611,124 372,121.761 372,119 L 372,89"/>
    <text style="fill: #000000;text-anchor:middle;font-size:12.8;font-family:sanserif;font-style:normal;font-weight:normal" x="389" y="136">
      <tspan x="389" y="136">staff</tspan>
    </text>
  </g>
  <g>
    <rect style="fill: #ffffff" x="505" y="90" width="34" height="30"/>
    <ellipse style="fill: #ffffff" cx="522" cy="120" rx="17" ry="5"/>
    <ellipse style="fill: #ffffff" cx="522" cy="90" rx="17" ry="5"/>
    <ellipse style="fill: none; fill-opacity:0; stroke-width: 2; stroke: #000000" cx="522" cy="90" rx="17" ry="5"/>
    <path style="fill: none; fill-opacity:0; stroke-width: 2; stroke: #000000" d="M 539 90 L 539,120 C 539,122.761 531.389,125 522,125 C 512.611,125 505,122.761 505,120 L 505,90"/>
    <text style="fill: #000000;text-anchor:middle;font-size:12.8;font-family:sanserif;font-style:normal;font-weight:normal" x="522" y="137">
      <tspan x="522" y="137">zipcodes</tspan>
    </text>
  </g>
  <g>
    <rect style="fill: #ffffff" x="214.05" y="195" width="105.9" height="38"/>
    <rect style="fill: none; fill-opacity:0; stroke-width: 2; stroke: #000000" x="214.05" y="195" width="105.9" height="38"/>
    <text style="fill: #000000;text-anchor:middle;font-size:12.8;font-family:sanserif;font-style:normal;font-weight:normal" x="267" y="217.9">
      <tspan x="267" y="217.9">RoomService</tspan>
    </text>
  </g>
  <g>
    <rect style="fill: #ffffff" x="343.3" y="194" width="99.4" height="38"/>
    <rect style="fill: none; fill-opacity:0; stroke-width: 2; stroke: #000000" x="343.3" y="194" width="99.4" height="38"/>
    <text style="fill: #000000;text-anchor:middle;font-size:12.8;font-family:sanserif;font-style:normal;font-weight:normal" x="393" y="216.9">
      <tspan x="393" y="216.9">StaffService</tspan>
    </text>
  </g>
  <g>
    <rect style="fill: #ffffff" x="462.6" y="194" width="120.8" height="38"/>
    <rect style="fill: none; fill-opacity:0; stroke-width: 2; stroke: #000000" x="462.6" y="194" width="120.8" height="38"/>
    <text style="fill: #000000;text-anchor:middle;font-size:12.8;font-family:sanserif;font-style:normal;font-weight:normal" x="523" y="216.9">
      <tspan x="523" y="216.9">ZipcodeService</tspan>
    </text>
  </g>
  <g>
    <rect style="fill: #ffffff" x="600.076" y="194" width="145.85" height="38"/>
    <rect style="fill: none; fill-opacity:0; stroke-width: 2; stroke: #000000" x="600.076" y="194" width="145.85" height="38"/>
    <text style="fill: #000000;text-anchor:middle;font-size:12.8;font-family:sanserif;font-style:normal;font-weight:normal" x="673.001" y="216.9">
      <tspan x="673.001" y="216.9">GeolocationService</tspan>
    </text>
  </g>
  <g>
    <rect style="fill: none; fill-opacity:0; stroke-width: 2; stroke: #000000" x="406" y="279" width="68" height="60.112"/>
    <image x="407" y="280" width="66" height="58.112" xlink:href="file:///home/sander/nix/disnix/examples/WebServicesExample/trunk/doc/./browser.png"/>
  </g>
  <text style="fill: #000000;text-anchor:start;font-size:12.8;font-family:sanserif;font-style:normal;font-weight:normal" x="402.362" y="356">
    <tspan x="402.362" y="356">StaffTracker</tspan>
  </text>
  <g>
    <line style="fill: none; fill-opacity:0; stroke-width: 2; stroke: #000000" x1="440" y1="280" x2="277.615" y2="235.884"/>
    <polygon style="fill: #000000" points="278.926,231.059 267.965,233.262 276.304,240.709 "/>
    <polygon style="fill: none; fill-opacity:0; stroke-width: 2; stroke: #000000" points="278.926,231.059 267.965,233.262 276.304,240.709 "/>
  </g>
  <g>
    <line style="fill: none; fill-opacity:0; stroke-width: 2; stroke: #000000" x1="440" y1="280" x2="400.696" y2="239.86"/>
    <polygon style="fill: #000000" points="404.268,236.361 393.7,232.715 397.123,243.358 "/>
    <polygon style="fill: none; fill-opacity:0; stroke-width: 2; stroke: #000000" points="404.268,236.361 393.7,232.715 397.123,243.358 "/>
  </g>
  <g>
    <line style="fill: none; fill-opacity:0; stroke-width: 2; stroke: #000000" x1="440" y1="280" x2="513.478" y2="237.507"/>
    <polygon style="fill: #000000" points="515.981,241.835 522.134,232.501 510.975,233.179 "/>
    <polygon style="fill: none; fill-opacity:0; stroke-width: 2; stroke: #000000" points="515.981,241.835 522.134,232.501 510.975,233.179 "/>
  </g>
  <g>
    <line style="fill: none; fill-opacity:0; stroke-width: 2; stroke: #000000" x1="440" y1="280" x2="662.226" y2="234.219"/>
    <polygon style="fill: #000000" points="663.235,239.117 672.021,232.202 661.217,229.322 "/>
    <polygon style="fill: none; fill-opacity:0; stroke-width: 2; stroke: #000000" points="663.235,239.117 672.021,232.202 661.217,229.322 "/>
  </g>
  <g>
    <line style="fill: none; fill-opacity:0; stroke-width: 2; stroke: #000000" x1="267" y1="195" x2="267.978" y2="150.025"/>
    <polygon style="fill: #000000" points="272.977,150.133 268.195,140.027 262.979,149.916 "/>
    <polygon style="fill: none; fill-opacity:0; stroke-width: 2; stroke: #000000" points="272.977,150.133 268.195,140.027 262.979,149.916 "/>
  </g>
  <g>
    <line style="fill: none; fill-opacity:0; stroke-width: 2; stroke: #000000" x1="393" y1="194" x2="392.523" y2="151.089"/>
    <polygon style="fill: #000000" points="397.523,151.034 392.412,141.09 387.524,151.145 "/>
    <polygon style="fill: none; fill-opacity:0; stroke-width: 2; stroke: #000000" points="397.523,151.034 392.412,141.09 387.524,151.145 "/>
  </g>
  <g>
    <line style="fill: none; fill-opacity:0; stroke-width: 2; stroke: #000000" x1="523" y1="194" x2="523.942" y2="152.088"/>
    <polygon style="fill: #000000" points="528.941,152.201 524.166,142.091 518.943,151.976 "/>
    <polygon style="fill: none; fill-opacity:0; stroke-width: 2; stroke: #000000" points="528.941,152.201 524.166,142.091 518.943,151.976 "/>
  </g>
</svg>
